<mxfile host="app.diagrams.net" modified="2021-06-23T03:46:23.680Z" agent="5.0 (Macintosh; Intel Mac OS X 10_15_7) AppleWebKit/537.36 (KHTML, like Gecko) Chrome/90.0.4430.212 Safari/537.36" etag="5slxEj8Q_kC8fLGwBIdb" version="14.8.0" type="github">
  <diagram id="uiNefOvo3RTNCkr05vC1" name="Page-1">
    <mxGraphModel dx="1426" dy="737" grid="1" gridSize="10" guides="1" tooltips="1" connect="1" arrows="1" fold="1" page="1" pageScale="1" pageWidth="827" pageHeight="1169" math="0" shadow="0">
      <root>
        <mxCell id="0" />
        <mxCell id="1" parent="0" />
        <mxCell id="ZK9QI_eOYmfKTTe8BGin-3" value="" style="edgeStyle=entityRelationEdgeStyle;rounded=0;orthogonalLoop=1;jettySize=auto;html=1;entryX=0;entryY=0.3;entryDx=0;entryDy=0;exitX=1;exitY=0.25;exitDx=0;exitDy=0;exitPerimeter=0;" edge="1" parent="1" source="ZK9QI_eOYmfKTTe8BGin-1" target="ZK9QI_eOYmfKTTe8BGin-2">
          <mxGeometry relative="1" as="geometry" />
        </mxCell>
        <mxCell id="ZK9QI_eOYmfKTTe8BGin-1" value="*.proto files" style="strokeWidth=2;html=1;shape=mxgraph.flowchart.document2;whiteSpace=wrap;size=0.25;" vertex="1" parent="1">
          <mxGeometry x="160" y="200" width="100" height="60" as="geometry" />
        </mxCell>
        <mxCell id="ZK9QI_eOYmfKTTe8BGin-4" style="edgeStyle=entityRelationEdgeStyle;rounded=0;orthogonalLoop=1;jettySize=auto;html=1;exitX=0;exitY=0.7;exitDx=0;exitDy=0;entryX=1;entryY=0.75;entryDx=0;entryDy=0;entryPerimeter=0;" edge="1" parent="1" source="ZK9QI_eOYmfKTTe8BGin-2" target="ZK9QI_eOYmfKTTe8BGin-1">
          <mxGeometry relative="1" as="geometry" />
        </mxCell>
        <mxCell id="ZK9QI_eOYmfKTTe8BGin-2" value="mysql tables" style="shape=cylinder;whiteSpace=wrap;html=1;boundedLbl=1;backgroundOutline=1;strokeWidth=2;" vertex="1" parent="1">
          <mxGeometry x="380" y="190" width="120" height="80" as="geometry" />
        </mxCell>
      </root>
    </mxGraphModel>
  </diagram>
</mxfile>
